# xmcd CD database file
#
# Track frame offsets:
#	150
#	43539
#	81584
#	126625
#	182973
#
# Disc length: 3711 seconds
#
# Revision: 0
# Processed by: cddbd v1.4PL0 Copyright (c) Steve Scherf et al.
# Submitted via: CDex 1.50
#
DISCID=480e7d05
DTITLE=Paczynski,Levinson,Jenny-Clark - 8 years old
DYEAR=1900
DGENRE=Jazz
TTITLE0=the drive
TTITLE1=re:person I knew
TTITLE2=qal
TTITLE3=au-dela
TTITLE4=ballade
EXTD=
EXTT0=
EXTT1=
EXTT2=
EXTT3=
EXTT4=
PLAYORDER=
